{"title":"Lady Gaga - Til It Happens To You (2015.Pop)","uid":12451576,"size":93543904,"categoryP":"video","categoryS":"music_videos","magnet":"?xt=urn:btih:af5ebca8c95dde51971f403358ed45210312b615&amp;dn=Lady+Gaga+-+Til+It+Happens+To+You+%282015.Pop%29&amp;tr=udp%3A%2F%2Ftracker.openbittorrent.com%3A80&amp;tr=udp%3A%2F%2Fopen.demonii.com%3A1337&amp;tr=udp%3A%2F%2Ftracker.coppersurfer.tk%3A6969&amp;tr=udp%3A%2F%2Fexodus.desync.com%3A6969","seeders":1,"leechers":0,"uploader":"MeRaDil","files":1,"time":1442691187,"description":"LADY GAGA - TIL IT HAPPENS TO YOU\n\n &lt;a href=&quot;\nhttp://gifyu.com/images/gaga-1.png&quot; rel=&quot;nofollow&quot; target=&quot;_NEW&quot;&gt;\nhttp://gifyu.com/images/gaga-1.png&lt;/a&gt;\n &lt;a href=&quot;\nhttps://thepiratebay.vg/user/MeRaDil&quot; rel=&quot;nofollow&quot; target=&quot;_NEW&quot;&gt;\nhttps://thepiratebay.vg/user/MeRaDil&lt;/a&gt;\n\n\nMEDIA INFO\nLady Gaga - Til It Happens To You\nFormat                                   : PROMO MPEG-4\nFormat profile                           : Base Media\nCodec ID                                 : isom\nFile size                                : 89.2 MiB\nDuration                                 : 5mn 25s\nOverall bit rate                         : 2 298 Kbps\nMusicVid name                            : Til It Happens To You\nPerformer                                : Lady Gaga\nGenre                                    : Pop\nContentType                              : Music Video\nRecorded date                            : 2015\nComment                                  : from the documentary film : The Hunting Ground\nRating                                   : Unrated\nMake                                     : MeRaDil\nRelease date                             : USA - september 17 - 2015\n\nVideo\nID                                       : 1\nFormat                                   : AVC\nFormat/Info                              : Advanced Video Codec\nFormat profile                           : &lt;a class=&quot;__cf_email__&quot; href=&quot;/cdn-cgi/l/email-protection&quot; data-cfemail=&quot;e1a9888689a1add5cfd1&quot;&gt;[email&amp;#160;protected]&lt;/a&gt;&lt;script data-cfhash='f9e31' type=&quot;text/javascript&quot;&gt;\n/* &lt;![CDATA[ */!function(){try{var t=&quot;currentScript&quot;in document?document.currentScript:function(){for(var t=document.getElementsByTagName(&quot;script&quot;),e=t.length;e--;)if(t[e].getAttribute(&quot;data-cfhash&quot;))return t[e]}();if(t&amp;&amp;t.previousSibling){var e,r,n,i,c=t.previousSibling,a=c.getAttribute(&quot;data-cfemail&quot;);if(a){for(e=&quot;&quot;,r=parseInt(a.substr(0,2),16),n=2;a.length-n;n+=2)i=parseInt(a.substr(n,2),16)^r,e+=String.fromCharCode(i);e=document.createTextNode(e),c.parentNode.replaceChild(e,c)}t.parentNode.removeChild(t);}}catch(u){}}()/* ]]&gt; */&lt;/script&gt;\nFormat settings, CABAC                   : Yes\nFormat settings, ReFrames                : 2 frames\nCodec ID                                 : avc1\nCodec ID/Info                            : Advanced Video Coding\nDuration                                 : 5mn 25s\nBit rate                                 : 2 035 Kbps\nWidth                                    : 1 920 pixels\nHeight                                   : 1 080 pixels\nDisplay aspect ratio                     : 16:9\nFrame rate mode                          : Variable\nFrame rate                               : 23.976 fps\nMinimum frame rate                       : 23.974 fps\nMaximum frame rate                       : 23.981 fps\nColor space                              : YUV\nChroma subsampling                       : 4:2:0\nBit depth                                : 8 bits\nScan type                                : Progressive\nBits/(Pixel*Frame)                       : 0.041\nStream size                              : 79.0 MiB (89%)\n\nAudio\nID                                       : 2\nFormat                                   : AAC\nFormat/Info                              : Advanced Audio Codec\nFormat profile                           : LC\nCodec ID                                 : 40\nDuration                                 : 5mn 25s\nBit rate mode                            : Constant\nBit rate                                 : 256 Kbps\nChannel(s)                               : 2 channels\nChannel positions                        : Front: L R\nSampling rate                            : 44.1 KHz\nCompression mode                         : Lossy\nStream size                              : 9.94 MiB (11%)\n\nLady Gaga * The Hunting Ground * Promo","torrent":{"xt":"urn:btih:af5ebca8c95dde51971f403358ed45210312b615","amp;dn":"Lady+Gaga+-+Til+It+Happens+To+You+%282015.Pop%29","amp;tr":["udp%3A%2F%2Ftracker.openbittorrent.com%3A80","udp%3A%2F%2Fopen.demonii.com%3A1337","udp%3A%2F%2Ftracker.coppersurfer.tk%3A6969","udp%3A%2F%2Fexodus.desync.com%3A6969"],"infoHash":"af5ebca8c95dde51971f403358ed45210312b615","infoHashBuffer":{"type":"Buffer","data":[175,94,188,168,201,93,222,81,151,31,64,51,88,237,69,33,3,18,182,21]},"announce":[],"urlList":[]}}